<svg xmlns="http://www.w3.org/2000/svg" version="1.1" viewBox="27 14.3 49 71.7" xml:space="preserve">
  <path fill="#F38020" d="M73.8,84L60.3,25.7l0.6-7.1c0.1-1.1-0.3-2.2-1-3c-0.8-0.8-1.8-1.3-2.9-1.3h-7.2c-1.8,0-3.4,1.2-3.9,3L29.2,84H27v2h6v-2  h-1.7l1.8-7h19.1l1.1,7H51v2h7v-2h-2.5l0.6-7h14.1l1.6,7H70v2h6v-2H73.8z M60.7,36h-1.2l0.3-3.7L60.7,36z M47.8,17.8  c0.2-0.9,1-1.5,1.9-1.5H57c0.6,0,1.1,0.2,1.5,0.6s0.6,1,0.5,1.5l-0.6,7.4l0,0l0,0L57.5,36h-9.6l-1.8-11.4L47.8,17.8z M53.9,75  l-1.7-11h3l-0.9,11H53.9z M55.3,62h-3.4l-1.7-11h6L55.3,62z M46.2,38l1.7,11H40l2.8-11H46.2z M43.3,36l1.6-6.4l1,6.4H43.3z M48.2,51  l1.7,11H36.8l2.8-11H48.2z M56.4,49h-6.5l-1.7-11h9.1L56.4,49z M33.5,75l2.8-11h13.9l1.7,11H33.5z M56.2,75l3.1-37h1.8l8.5,37H56.2z  " />
</svg>
