<svg version="1.1" xmlns="http://www.w3.org/2000/svg" xmlns:xlink="http://www.w3.org/1999/xlink" viewBox="0 0 11.3984 16.4297">
 <g>
  <rect height="16.4297" opacity="0" width="11.3984" x="0" y="0"/>
  <path fill="black" fill-opacity="0.85" d="M10.9922 6.89844L10.9922 12.8984C10.9922 14.2109 10.3359 14.8594 9 14.8594L1.99219 14.8594C0.664062 14.8594 0 14.2109 0 12.8984L0 6.89844C0 5.58594 0.664062 4.9375 1.99219 4.9375L3.71094 4.9375L3.71094 6.0625L2.00781 6.0625C1.44531 6.0625 1.125 6.36719 1.125 6.96094L1.125 12.8359C1.125 13.4297 1.44531 13.7344 2.00781 13.7344L8.98438 13.7344C9.53906 13.7344 9.86719 13.4297 9.86719 12.8359L9.86719 6.96094C9.86719 6.36719 9.53906 6.0625 8.98438 6.0625L7.27344 6.0625L7.27344 4.9375L9 4.9375C10.3359 4.9375 10.9922 5.59375 10.9922 6.89844Z"/>
  <path fill="black" fill-opacity="0.85" d="M5.49219 10.0156C5.79688 10.0156 6.05469 9.77344 6.05469 9.47656L6.05469 3.39844L6.00781 2.46094L6.32031 2.79688L7.17969 3.73438C7.28125 3.85156 7.42188 3.89844 7.5625 3.89844C7.85156 3.89844 8.07031 3.69531 8.07031 3.41406C8.07031 3.26562 8.00781 3.14844 7.90625 3.04688L5.89844 1.13281C5.75781 0.984375 5.64062 0.945312 5.49219 0.945312C5.35156 0.945312 5.23438 0.984375 5.08594 1.13281L3.08594 3.04688C2.97656 3.14844 2.92188 3.26562 2.92188 3.41406C2.92188 3.69531 3.13281 3.89844 3.42188 3.89844C3.55469 3.89844 3.71094 3.85156 3.80469 3.73438L4.67188 2.79688L4.98438 2.46094L4.9375 3.39844L4.9375 9.47656C4.9375 9.77344 5.19531 10.0156 5.49219 10.0156Z"/>
 </g>
</svg>